<svg xmlns="http://www.w3.org/2000/svg" width="888" height="200" viewBox="0 0 888 200">
  <path fill="none" d="M330.214 144.596h227.571v34.538H330.214z"/>
  <path fill="#88C0D0" d="M332.644 144.596h1.35l21.959 31.004h.09v-31.004h.9v32.129h-1.35l-21.959-31.004h-.09v31.004h-.9v-32.129zm38.43 8.461c6.75 0 10.395 5.805 10.395 12.104 0 6.346-3.645 12.105-10.44 12.105-6.75 0-10.395-5.76-10.395-12.105 0-6.3 3.645-12.104 10.44-12.104zm0 23.308c6.165 0 9.495-5.355 9.495-11.205 0-5.76-3.33-11.205-9.495-11.205-6.255 0-9.54 5.445-9.54 11.205 0 5.85 3.285 11.205 9.54 11.205zm15.03.36h-.9v-23.129h.9v5.715h.09c.855-3.42 3.555-6.434 9.09-6.254v.898c-6.345-.314-9.18 4.637-9.18 9.676v13.094zm28.753-32.129h.9v32.129h-.9v-6.479h-.09c-1.17 4.049-4.545 7.02-9.27 7.02-6.12 0-9.855-5.086-9.855-12.061 0-6.479 3.465-12.148 9.855-12.148 4.905 0 8.189 2.834 9.27 7.02h.09v-15.481zm-9.359 9.359c-6.345 0-8.955 5.896-8.955 11.25 0 5.939 2.97 11.16 8.955 11.16 5.939 0 9.359-5.176 9.359-11.16 0-7.154-3.734-11.25-9.359-11.25z"/>
  <path fill="#2E3440" d="M461.746 176.725h-2.205l-.404-5.85h-.09c-2.16 4.59-6.48 6.525-11.115 6.525-10.125 0-15.164-7.965-15.164-16.74 0-8.773 5.04-16.738 15.164-16.738 6.75 0 12.24 3.645 13.41 10.664h-3.061c-.404-3.689-4.229-8.055-10.35-8.055-8.504 0-12.104 7.109-12.104 14.129s3.6 14.131 12.104 14.131c7.109 0 11.25-4.996 11.115-11.791H448.11v-2.609h13.635v16.334zm24.165 0h-2.609v-4.184h-.09c-1.485 3.104-4.545 4.859-8.01 4.859-5.85 0-8.145-3.42-8.145-8.82v-15.074h2.835v15.119c.135 4.186 1.709 6.391 6.209 6.391 4.86 0 6.975-4.59 6.975-9.314v-12.195h2.835v23.218zm5.085-16.11c.271-5.443 4.095-7.783 9.405-7.783 4.095 0 8.549 1.26 8.549 7.469v12.33c0 1.08.54 1.709 1.665 1.709.315 0 .675-.09.9-.18v2.385c-.63.135-1.08.18-1.845.18-2.88 0-3.33-1.619-3.33-4.049h-.09c-1.98 3.014-4.005 4.725-8.46 4.725-4.274 0-7.785-2.115-7.785-6.795 0-6.525 6.346-6.75 12.465-7.471 2.34-.27 3.645-.584 3.645-3.148 0-3.826-2.744-4.77-6.074-4.77-3.51 0-6.12 1.619-6.21 5.398h-2.835zm15.119 3.42h-.09c-.359.676-1.619.9-2.385 1.035-4.814.855-10.8.811-10.8 5.355 0 2.834 2.521 4.59 5.175 4.59 4.32 0 8.146-2.746 8.1-7.291v-3.689zm8.506-19.439h2.835v20.16l12.869-11.25h3.78l-9.9 8.596 10.575 14.623h-3.555l-9.18-12.645-4.59 3.826v8.818h-2.835v-32.128zm24.165 21.285c.045 4.139 2.204 9.135 7.649 9.135 4.14 0 6.39-2.43 7.29-5.939h2.834c-1.215 5.264-4.274 8.324-10.124 8.324-7.38 0-10.484-5.67-10.484-12.285 0-6.119 3.104-12.283 10.484-12.283 7.47 0 10.439 6.523 10.215 13.049h-17.864zm15.029-2.385c-.136-4.275-2.79-8.279-7.38-8.279-4.635 0-7.2 4.049-7.649 8.279h15.029z"/>
  <g fill="#2E3440">
    <path d="M466.561 126.596l-43.393-55.545V55.64l48.092 62.171h25.844V30.266h-43.465l-9.397-9.399H506.5v105.729z"/>
    <path d="M421.439 20.867l43.395 55.541v15.41L416.741 29.65h-25.843v87.545h43.464l9.4 9.401H381.5V20.867z"/>
  </g>
</svg>
